<svg width="33" height="31" viewBox="0 0 33 31" fill="none" xmlns="http://www.w3.org/2000/svg">
<path opacity="0.4" d="M24.2 0H8.8C3.18267 0 0 2.98978 0 8.26667V22.7333C0 27.9964 3.168 31 8.8 31H24.2C29.8173 31 33 27.9964 33 22.7333V8.26667C33 2.98978 29.8173 0 24.2 0Z" fill="#D53535"/>
<path d="M21.9789 16.5979H17.7369V20.5483C17.7369 21.1844 17.1832 21.7 16.5001 21.7C15.8171 21.7 15.2634 21.1844 15.2634 20.5483V16.5979H11.0214C10.3843 16.5365 9.90015 16.0365 9.90015 15.44C9.90015 14.8436 10.3843 14.3436 11.0214 14.2822H15.2501V10.3441C15.3161 9.75085 15.853 9.29999 16.4935 9.29999C17.134 9.29999 17.6709 9.75085 17.7369 10.3441V14.2822H21.9789C22.616 14.3436 23.1001 14.8436 23.1001 15.44C23.1001 16.0365 22.616 16.5365 21.9789 16.5979Z" fill="#D53535"/>
</svg>
