<svg width="80" height="72" viewBox="0 0 80 72" fill="none" xmlns="http://www.w3.org/2000/svg">
<path fill-rule="evenodd" clip-rule="evenodd" d="M20 9C17.2386 9 15 11.0147 15 13.5C15 15.9853 17.2386 18 20 18C22.7615 18 25 15.9853 25 13.5C25 11.0147 22.7615 9 20 9ZM8.33337 13.5C8.33337 7.70101 13.5567 3 20 3C26.4434 3 31.6667 7.70101 31.6667 13.5C31.6667 19.299 26.4434 24 20 24C13.5567 24 8.33337 19.299 8.33337 13.5Z" fill="black"/>
<path fill-rule="evenodd" clip-rule="evenodd" d="M20 31.5C17.2386 31.5 15 33.5147 15 36C15 38.4853 17.2386 40.5 20 40.5C22.7615 40.5 25 38.4853 25 36C25 33.5147 22.7615 31.5 20 31.5ZM8.33337 36C8.33337 30.201 13.5567 25.5 20 25.5C26.4434 25.5 31.6667 30.201 31.6667 36C31.6667 41.799 26.4434 46.5 20 46.5C13.5567 46.5 8.33337 41.799 8.33337 36Z" fill="black"/>
<path fill-rule="evenodd" clip-rule="evenodd" d="M20 54C17.2386 54 15 56.0147 15 58.5C15 60.9853 17.2386 63 20 63C22.7615 63 25 60.9853 25 58.5C25 56.0147 22.7615 54 20 54ZM8.33337 58.5C8.33337 52.701 13.5567 48 20 48C26.4434 48 31.6667 52.701 31.6667 58.5C31.6667 64.299 26.4434 69 20 69C13.5567 69 8.33337 64.299 8.33337 58.5Z" fill="black"/>
<path fill-rule="evenodd" clip-rule="evenodd" d="M68.3334 16.5H38.3334V10.5H68.3334V16.5Z" fill="black"/>
<path fill-rule="evenodd" clip-rule="evenodd" d="M68.3334 39H38.3334V33H68.3334V39Z" fill="black"/>
<path fill-rule="evenodd" clip-rule="evenodd" d="M68.3334 61.5H38.3334V55.5H68.3334V61.5Z" fill="black"/>
</svg>
