<svg width="45" height="44" viewBox="0 0 45 44" fill="none" xmlns="http://www.w3.org/2000/svg">
<path fill-rule="evenodd" clip-rule="evenodd" d="M22.5 7.33332C14.2157 7.33332 7.5 13.8998 7.5 22C7.5 30.1002 14.2157 36.6667 22.5 36.6667C30.7843 36.6667 37.5 30.1002 37.5 22C37.5 13.8998 30.7843 7.33332 22.5 7.33332ZM3.75 22C3.75 11.8748 12.1447 3.66666 22.5 3.66666C32.8553 3.66666 41.25 11.8748 41.25 22C41.25 32.1252 32.8553 40.3333 22.5 40.3333C12.1447 40.3333 3.75 32.1252 3.75 22Z" fill="black"/>
<path fill-rule="evenodd" clip-rule="evenodd" d="M22.5 14.6667C20.4289 14.6667 18.75 16.3083 18.75 18.3333C18.75 20.3584 20.4289 22 22.5 22C24.5711 22 26.25 20.3584 26.25 18.3333C26.25 16.3083 24.5711 14.6667 22.5 14.6667ZM15 18.3333C15 14.2832 18.3579 11 22.5 11C26.6421 11 30 14.2832 30 18.3333C30 22.3834 26.6421 25.6667 22.5 25.6667C18.3579 25.6667 15 22.3834 15 18.3333Z" fill="black"/>
<path fill-rule="evenodd" clip-rule="evenodd" d="M22.5001 30.25C18.3383 30.25 14.702 32.4586 12.754 35.7513L9.50793 33.9153C12.0987 29.5362 16.9456 26.5833 22.5001 26.5833C28.0545 26.5833 32.9014 29.5362 35.4922 33.9153L32.2462 35.7513C30.2981 32.4586 26.6618 30.25 22.5001 30.25Z" fill="black"/>
</svg>
